<?xml version="1.0" encoding="UTF-8"?>
<svg width="384px" height="37px" viewBox="0 0 384 37" version="1.1" xmlns="http://www.w3.org/2000/svg" xmlns:xlink="http://www.w3.org/1999/xlink">
    <title>Transparent</title>
    <g id="Symbols" stroke="none" stroke-width="1" fill="none" fill-rule="evenodd">
        <g id="logo">
            <g id="Transparent">
                <g id="SvgjsG99716" transform="translate(47.000000, 8.000000)" fill="#FFFFFF" fill-rule="nonzero">
                    <path d="M0.0564823525,0.906935074 L0.0564823525,22.9308006 L7.98273741,22.9308006 C10.0620278,22.9308006 11.9832922,22.4965952 13.721579,21.6281843 C15.4681829,20.7597734 16.8571489,19.5214837 17.8884769,17.9052745 C18.919805,16.2890654 19.435469,14.4235901 19.435469,12.3088487 C19.435469,10.3308016 19.0029766,8.48140801 18.146309,6.76066787 C17.2896413,5.0318869 15.9256268,3.62473959 14.0459483,2.53922595 C12.1662697,1.45371231 9.77924433,0.906935074 6.86823775,0.906935074 L0.0564823525,0.906935074 Z M7.20924138,18.7415221 L4.54774965,18.7415221 L4.54774965,5.06405026 L8.19898361,5.06405026 C9.08891991,5.06405026 10.0287592,5.26507131 11.0268186,5.66711339 C12.0331951,6.06111464 12.9064971,6.7847904 13.6633588,7.82205899 C14.4119034,8.85932757 14.7944928,10.2503932 14.7944928,12.0113375 C14.7944928,14.1823648 14.1124855,15.8468191 12.748471,17.0047003 C11.3844565,18.1625815 9.53804664,18.7415221 7.20924138,18.7415221 Z M36.7351652,18.6209095 L38.4984035,22.9308006 L43.6966296,22.9308006 L33.4249349,0.0385241637 L33.1754201,0.0385241637 L22.8954083,22.9308006 L27.3284554,22.9308006 L29.1831825,18.6209095 L36.7351652,18.6209095 Z M35.2463933,14.9703673 L30.7634432,14.9703673 L33.0506626,9.6151667 L35.2463933,14.9703673 Z M69.2635845,22.9308006 L69.2635845,0.906935074 L64.7723172,0.906935074 L64.7723172,9.79206522 L54.5921113,9.79206522 L54.5921113,0.906935074 L50.100844,0.906935074 L50.100844,22.9308006 L54.5921113,22.9308006 L54.5921113,13.9813438 L64.7723172,13.9813438 L64.7723172,22.9308006 L69.2635845,22.9308006 Z M93.7742599,0.906935074 L78.2378019,0.906935074 L78.2378019,22.9308006 L94.2067523,22.9308006 L94.2067523,18.7415221 L82.7290692,18.7415221 L82.7290692,13.9813438 L92.5017341,13.9813438 L92.5017341,9.79206522 L82.7290692,9.79206522 L82.7290692,5.09621363 L93.7742599,5.09621363 L93.7742599,0.906935074 Z M106.43298,0.906935074 L101.941713,0.906935074 L101.941713,22.9308006 L106.43298,22.9308006 L106.43298,0.906935074 Z M138.86991,0.0144016385 L138.803373,0.0144016385 L126.984686,15.8387782 L115.440466,0.0144016385 L115.407197,0.0144016385 L115.407197,22.9308006 L119.740439,22.9308006 L119.740439,13.0888103 L126.893198,22.6332895 L126.951418,22.6332895 L134.378643,12.4294613 L134.378643,22.9308006 L138.86991,22.9308006 L138.86991,0.0144016385 Z" id="Shape"></path>
                </g>
                <g id="SvgjsG99717" transform="translate(194.000000, 5.000000)" fill-rule="nonzero">
                    <polygon id="Path" points="0 0 189.920381 0 189.920381 31.957353 0 31.957353"></polygon>
                </g>
                <g id="SvgjsG99718" transform="translate(199.000000, 8.000000)" fill="#FFFFFF" fill-rule="nonzero">
                    <path d="M4.56026709,0.910558551 L0.0747584768,0.910558551 L0.0747584768,23.0224161 L15.2507293,23.0224161 L15.2507293,18.8164001 L4.56026709,18.8164001 L4.56026709,0.910558551 Z M34.2310759,18.6953056 L35.9920533,23.0224161 L41.1836142,23.0224161 L30.9250899,0.0386780793 L30.675895,0.0386780793 L20.4173707,23.0224161 L24.8364273,23.0224161 L26.6887762,18.6953056 L34.2310759,18.6953056 Z M32.7442129,15.0301784 L28.2670107,15.0301784 L30.5512975,9.65358217 L32.7442129,15.0301784 Z M47.5879237,0.910558551 L47.5879237,23.0224161 L55.4957093,23.0224161 C57.5806402,23.0224161 59.4911346,22.5864758 61.2271925,21.7145954 C62.971557,20.8427149 64.3587421,19.5994779 65.3887477,17.9768115 C66.4187534,16.3541451 66.9337563,14.4812166 66.9337563,12.3580262 C66.9337563,10.3720763 66.5018184,8.51529378 65.6545556,6.78767877 C64.7989864,5.05199079 63.4284143,3.63922151 61.5511459,2.54937092 C59.682184,1.45952033 57.2899127,0.910558551 54.3826386,0.910558551 L47.5879237,0.910558551 Z M54.723205,18.8164001 L52.0651259,18.8164001 L52.0651259,5.08428266 L55.7116782,5.08428266 C56.6004735,5.08428266 57.5391077,5.28610684 58.5441939,5.68975521 C59.5409735,6.08533061 60.4131558,6.81189767 61.169047,7.85331045 C61.9249383,8.89472324 62.2987307,10.2913466 62.2987307,12.0593264 C62.2987307,14.2390276 61.6175979,15.9101319 60.2553323,17.0726391 C58.8930667,18.2351464 57.0490243,18.8164001 54.723205,18.8164001 Z M90.0258191,0.910558551 L74.5092819,0.910558551 L74.5092819,23.0224161 L90.457757,23.0224161 L90.457757,18.8164001 L78.986484,18.8164001 L78.986484,14.0372034 L88.754925,14.0372034 L88.754925,9.83118745 L78.986484,9.83118745 L78.986484,5.11657453 L90.0258191,5.11657453 L90.0258191,0.910558551 Z M118.674929,0.910558551 L114.164501,0.910558551 L114.255872,14.2228817 L98.3655425,0.0386780793 L98.1827996,0.0386780793 L98.1827996,23.0224161 L102.726454,23.0224161 L102.635082,9.95228196 L118.550331,23.9265884 L118.674929,23.9265884 L118.674929,0.910558551 Z M125.851742,19.3088511 C125.394885,19.7447913 125.17061,20.2614612 125.17061,20.8588608 C125.17061,21.4966252 125.394885,22.0213681 125.851742,22.4250165 C126.300293,22.8205919 126.815296,23.0224161 127.396751,23.0224161 C127.953286,23.0224161 128.451676,22.8205919 128.891921,22.4088706 C129.332165,21.9971492 129.55644,21.4804793 129.55644,20.8588608 C129.55644,20.2614612 129.332165,19.7447913 128.875308,19.3088511 C128.426757,18.8809838 127.928367,18.6630137 127.396751,18.6630137 C126.815296,18.6630137 126.300293,18.8809838 125.851742,19.3088511 Z M136.052121,0.910558551 L136.052121,23.0224161 L143.959907,23.0224161 C146.044838,23.0224161 147.955332,22.5864758 149.69139,21.7145954 C151.435755,20.8427149 152.82294,19.5994779 153.852945,17.9768115 C154.882951,16.3541451 155.397954,14.4812166 155.397954,12.3580262 C155.397954,10.3720763 154.974322,8.51529378 154.118753,6.78767877 C153.263184,5.05199079 151.892612,3.63922151 150.015344,2.54937092 C148.146382,1.45952033 145.75411,0.910558551 142.846836,0.910558551 L136.052121,0.910558551 Z M143.187403,18.8164001 L140.529323,18.8164001 L140.529323,5.08428266 L144.175876,5.08428266 C145.064671,5.08428266 146.003305,5.28610684 147.008391,5.68975521 C148.005171,6.08533061 148.877353,6.81189767 149.633245,7.85331045 C150.389136,8.89472324 150.762928,10.2913466 150.762928,12.0593264 C150.762928,14.2390276 150.081795,15.9101319 148.71953,17.0726391 C147.357264,18.2351464 145.513222,18.8164001 143.187403,18.8164001 Z M178.490017,0.910558551 L162.973479,0.910558551 L162.973479,23.0224161 L178.921955,23.0224161 L178.921955,18.8164001 L167.450682,18.8164001 L167.450682,14.0372034 L177.219123,14.0372034 L177.219123,9.83118745 L167.450682,9.83118745 L167.450682,5.11657453 L178.490017,5.11657453 L178.490017,0.910558551 Z" id="Shape"></path>
                </g>
                <g id="SvgjsG99719">
                    <polygon id="Path" points="0 0 36.9450386 0 36.9450386 36.9450386 0 36.9450386"></polygon>
                    <path d="M32.1033913,21.5529966 L29.9993713,21.5529966 L28.1443609,18.4056488 C26.7759167,16.0851309 23.5953183,14.2685434 20.9016556,14.2685434 L16.1039729,14.2685434 C13.3630205,14.2685434 10.5696061,16.4257642 9.87725607,19.0765707 L8.06066852,26.0274102 C8.02483183,26.1659541 7.99860085,26.304498 7.97310878,26.4434114 C5.603454,26.1958796 3.4506666,24.9371621 3.4506666,22.4551945 C3.4506666,20.2296253 4.8804396,18.6428359 7.94872505,17.4631808 C9.55398698,16.847307 11.4389228,15.3270187 11.7706893,13.7210179 C11.9258585,12.9750976 11.7226607,12.2993728 11.1869577,11.7621919 L11.4633066,11.5183547 C12.8010864,9.9544712 12.9499749,7.83567323 11.7492612,6.63680673 L8.7592992,3.64758366 L7.51905425,4.88672025 L5.33560247,2.70289902 C5.01068185,2.38001702 4.48604032,2.38001702 4.1611197,2.70289902 C4.00511234,2.85880643 3.91745991,3.07032225 3.91745991,3.29087931 C3.91745991,3.51143637 4.00511234,3.72295219 4.1611197,3.8788596 L6.34494093,6.06083358 L5.44791539,6.95785912 L3.26520251,4.77440734 C3.10961063,4.6185121 2.8984006,4.53090552 2.67814585,4.53090552 C2.45789109,4.53090552 2.24668106,4.6185121 2.09108918,4.77440734 C1.93519395,4.92999921 1.84758737,5.14120924 1.84758737,5.361464 C1.84758737,5.58171876 1.93519395,5.79292879 2.09108918,5.94852066 L4.27380206,8.13234189 L4.27564932,8.13234189 L3.03466547,9.37147849 L6.02462744,12.3625488 C6.57141401,12.9100743 7.31105369,13.1753397 8.10130806,13.1753397 C8.83946993,13.1753397 9.62418255,12.9436943 10.3383301,12.4907481 L10.4875881,12.3784352 L10.5692366,12.3067618 C10.5762562,12.3137814 10.577734,12.324126 10.5858619,12.3311455 C10.935362,12.6732566 11.0580195,13.0737408 10.9578984,13.552918 C10.7218196,14.6904557 9.27024908,16.0685056 7.64983969,16.6895517 C5.49077164,17.5178595 2.61903379,19.018567 2.61903379,22.4551945 C2.61903379,25.4706485 5.14237992,26.9890896 7.90254375,27.2698719 C7.90328266,28.1720697 8.17002583,29.0092443 8.70462054,29.7008554 C9.4778802,30.7031743 10.6837663,31.2543943 12.0987612,31.2543943 L12.5690716,31.2543943 C12.7430827,33.0624845 14.2515486,34.4841296 16.1043423,34.4841296 C17.9552888,34.4841296 19.4644936,33.062115 19.6381353,31.2543943 L24.5514559,31.2543943 C24.7254671,33.0624845 26.233933,34.4841296 28.0856183,34.4841296 C29.9373037,34.4841296 31.446139,33.062115 31.6197807,31.2543943 L32.1033913,31.2543943 C33.7544651,31.2543943 35.0977867,29.9114421 35.0977867,28.2599989 L35.0977867,24.547392 C35.0977867,22.8959488 33.7540956,21.5529966 32.1033913,21.5529966 Z M10.2677651,10.357911 L9.43502396,11.0897922 L9.39734002,11.1197177 C8.97616658,11.374269 8.5180481,11.5128129 8.10093861,11.5128129 C7.83788994,11.5128129 7.4680701,11.4566565 7.19874077,11.188066 L5.38436992,9.37147849 L5.72389483,9.03269248 L6.21083044,8.54464853 L6.34863543,8.40610463 L7.79429479,6.96155362 L8.41903539,6.33681302 L8.7585603,5.99617976 L10.5744089,7.81276731 C11.1156538,8.35142597 10.9726765,9.4764024 10.2677651,10.357911 Z M16.1039729,33.654344 C14.5936597,33.654344 13.3656066,32.4273993 13.3656066,30.917825 C13.3656066,29.4082507 14.5932902,28.1794587 16.1039729,28.1794587 C17.6135471,28.1794587 18.8416002,29.4082507 18.8416002,30.917825 C18.8416002,32.4273993 17.6135471,33.654344 16.1039729,33.654344 Z M28.0856183,33.654344 C26.5760441,33.654344 25.3472521,32.4273993 25.3472521,30.917825 C25.3472521,29.4082507 26.5760441,28.1794587 28.0856183,28.1794587 C29.5951926,28.1794587 30.8228762,29.4082507 30.8228762,30.917825 C30.8228762,32.4273993 29.5948232,33.654344 28.0856183,33.654344 Z M33.4374766,28.2599989 C33.4360536,28.9962037 32.839596,29.5926612 32.1033913,29.5940843 L31.3933076,29.5940843 C30.8668408,28.2806881 29.5852175,27.3489343 28.0856183,27.3489343 C26.5860192,27.3489343 25.3051347,28.2806881 24.7775596,29.5940843 L19.4105538,29.5940843 C18.8837176,28.2806881 17.6032025,27.3489343 16.1039729,27.3489343 C14.6040043,27.3489343 13.3234893,28.2806881 12.7962836,29.5940843 L12.0983918,29.5940843 C11.2091247,29.5940843 10.4713323,29.2726624 10.019125,28.6863447 C9.56802609,28.1018742 9.44352131,27.3068169 9.66814715,26.446367 L11.4839958,19.4970052 C11.988665,17.5629324 14.1045074,15.9284839 16.1039729,15.9284839 L20.9016556,15.9284839 C22.9905281,15.9284839 25.6513097,17.4502501 26.7134796,19.2494735 L29.0506227,23.2133066 L32.1030218,23.2133066 C32.8391668,23.2145264 33.4356835,23.8108779 33.4371072,24.5470225 L33.4371072,28.2599989 L33.4374766,28.2599989 Z M25.4699096,20.3190323 C24.5078608,18.6376636 22.0909164,17.2156491 20.1915719,17.2156491 L17.1018584,17.2156491 C15.287857,17.2156491 13.3685622,18.7392625 12.908227,20.5506777 L12.3034368,23.1434805 C12.2746196,23.2683548 12.3034368,23.3980318 12.3824991,23.4963056 C12.4615615,23.5964267 12.580894,23.6544304 12.7079849,23.6544304 L26.7223464,23.6544304 C26.825112,23.8274551 27.0369957,23.9021099 27.2255257,23.8317199 C27.4140557,23.7613299 27.5251675,23.5660808 27.4893929,23.3680442 C27.4536182,23.1700077 27.2812163,23.0259743 27.0799744,23.0259953 L25.4699096,20.3190323 L25.4699096,20.3190323 Z M13.7158456,20.7472253 C14.0808626,19.3078466 15.6632186,18.0458041 17.1018584,18.0458041 L17.5370709,18.0458041 L16.4523646,22.8220587 L13.2314961,22.8220587 L13.7158456,20.7472253 L13.7158456,20.7472253 Z M17.3039477,22.8220587 L18.389393,18.0458041 L20.1915719,18.0458041 C21.7720807,18.0458041 23.9451879,19.327058 24.7528064,20.7383585 L25.9930514,22.8220587 L17.3039477,22.8220587 Z M24.0342254,11.9288141 L24.7387673,6.40146684 C24.7698077,6.1746239 24.9769281,6.01451652 25.2042748,6.04162216 C25.4314868,6.06970039 25.5929366,6.27880931 25.5641195,6.50491294 L24.8595776,12.0341074 C24.8317027,12.2408414 24.6555056,12.3952702 24.4469015,12.3957993 C24.4295373,12.3957993 24.4110648,12.3957993 24.3940701,12.3939521 C24.1665245,12.3644098 24.0056679,12.1564853 24.0342254,11.9288141 Z M27.1383475,13.0977551 L30.2110664,8.02667908 C30.3334835,7.8390198 30.5826172,7.78216965 30.774322,7.89814905 C30.9660267,8.01412845 31.0312971,8.26118981 30.9218889,8.45671933 L27.8491701,13.5296426 C27.7296592,13.7253788 27.4746329,13.7880631 27.2779998,13.6700337 C27.0822111,13.5499786 27.0198672,13.2945008 27.1383475,13.0977551 L27.1383475,13.0977551 Z M29.5013522,15.428987 L34.0308139,12.2746196 C34.1210181,12.2114881 34.2326634,12.1869099 34.3410398,12.2063248 C34.4494161,12.2257396 34.5455861,12.2875464 34.6082649,12.3780657 C34.6713964,12.4682699 34.6959746,12.5799151 34.6765597,12.6882915 C34.6571449,12.7966679 34.5953381,12.8928379 34.5048188,12.9555167 L29.9749876,16.1098841 C29.9033142,16.159021 29.8205573,16.1837742 29.7378005,16.1837742 C29.6062761,16.1837742 29.4780768,16.1220759 29.3975367,16.006438 C29.3342444,15.9162523 29.3096071,15.8045174 29.3291027,15.6960772 C29.3485984,15.5876369 29.410611,15.4914802 29.5013522,15.428987 L29.5013522,15.428987 Z M32.1033913,21.5529966 L29.9993713,21.5529966 L28.1443609,18.4056488 C26.7759167,16.0851309 23.5953183,14.2685434 20.9016556,14.2685434 L16.1039729,14.2685434 C13.3630205,14.2685434 10.5696061,16.4257642 9.87725607,19.0765707 L8.06066852,26.0274102 C8.02483183,26.1659541 7.99860085,26.304498 7.97310878,26.4434114 C5.603454,26.1958796 3.4506666,24.9371621 3.4506666,22.4551945 C3.4506666,20.2296253 4.8804396,18.6428359 7.94872505,17.4631808 C9.55398698,16.847307 11.4389228,15.3270187 11.7706893,13.7210179 C11.9258585,12.9750976 11.7226607,12.2993728 11.1869577,11.7621919 L11.4633066,11.5183547 C12.8010864,9.9544712 12.9499749,7.83567323 11.7492612,6.63680673 L8.7592992,3.64758366 L7.51905425,4.88672025 L5.33560247,2.70289902 C5.01068185,2.38001702 4.48604032,2.38001702 4.1611197,2.70289902 C4.00511234,2.85880643 3.91745991,3.07032225 3.91745991,3.29087931 C3.91745991,3.51143637 4.00511234,3.72295219 4.1611197,3.8788596 L6.34494093,6.06083358 L5.44791539,6.95785912 L3.26520251,4.77440734 C3.10961063,4.6185121 2.8984006,4.53090552 2.67814585,4.53090552 C2.45789109,4.53090552 2.24668106,4.6185121 2.09108918,4.77440734 C1.93519395,4.92999921 1.84758737,5.14120924 1.84758737,5.361464 C1.84758737,5.58171876 1.93519395,5.79292879 2.09108918,5.94852066 L4.27380206,8.13234189 L4.27564932,8.13234189 L3.03466547,9.37147849 L6.02462744,12.3625488 C6.57141401,12.9100743 7.31105369,13.1753397 8.10130806,13.1753397 C8.83946993,13.1753397 9.62418255,12.9436943 10.3383301,12.4907481 L10.4875881,12.3784352 L10.5692366,12.3067618 C10.5762562,12.3137814 10.577734,12.324126 10.5858619,12.3311455 C10.935362,12.6732566 11.0580195,13.0737408 10.9578984,13.552918 C10.7218196,14.6904557 9.27024908,16.0685056 7.64983969,16.6895517 C5.49077164,17.5178595 2.61903379,19.018567 2.61903379,22.4551945 C2.61903379,25.4706485 5.14237992,26.9890896 7.90254375,27.2698719 C7.90328266,28.1720697 8.17002583,29.0092443 8.70462054,29.7008554 C9.4778802,30.7031743 10.6837663,31.2543943 12.0987612,31.2543943 L12.5690716,31.2543943 C12.7430827,33.0624845 14.2515486,34.4841296 16.1043423,34.4841296 C17.9552888,34.4841296 19.4644936,33.062115 19.6381353,31.2543943 L24.5514559,31.2543943 C24.7254671,33.0624845 26.233933,34.4841296 28.0856183,34.4841296 C29.9373037,34.4841296 31.446139,33.062115 31.6197807,31.2543943 L32.1033913,31.2543943 C33.7544651,31.2543943 35.0977867,29.9114421 35.0977867,28.2599989 L35.0977867,24.547392 C35.0977867,22.8959488 33.7540956,21.5529966 32.1033913,21.5529966 Z M10.2677651,10.357911 L9.43502396,11.0897922 L9.39734002,11.1197177 C8.97616658,11.374269 8.5180481,11.5128129 8.10093861,11.5128129 C7.83788994,11.5128129 7.4680701,11.4566565 7.19874077,11.188066 L5.38436992,9.37147849 L5.72389483,9.03269248 L6.21083044,8.54464853 L6.34863543,8.40610463 L7.79429479,6.96155362 L8.41903539,6.33681302 L8.7585603,5.99617976 L10.5744089,7.81276731 C11.1156538,8.35142597 10.9726765,9.4764024 10.2677651,10.357911 Z M16.1039729,33.654344 C14.5936597,33.654344 13.3656066,32.4273993 13.3656066,30.917825 C13.3656066,29.4082507 14.5932902,28.1794587 16.1039729,28.1794587 C17.6135471,28.1794587 18.8416002,29.4082507 18.8416002,30.917825 C18.8416002,32.4273993 17.6135471,33.654344 16.1039729,33.654344 Z M28.0856183,33.654344 C26.5760441,33.654344 25.3472521,32.4273993 25.3472521,30.917825 C25.3472521,29.4082507 26.5760441,28.1794587 28.0856183,28.1794587 C29.5951926,28.1794587 30.8228762,29.4082507 30.8228762,30.917825 C30.8228762,32.4273993 29.5948232,33.654344 28.0856183,33.654344 Z M33.4374766,28.2599989 C33.4360536,28.9962037 32.839596,29.5926612 32.1033913,29.5940843 L31.3933076,29.5940843 C30.8668408,28.2806881 29.5852175,27.3489343 28.0856183,27.3489343 C26.5860192,27.3489343 25.3051347,28.2806881 24.7775596,29.5940843 L19.4105538,29.5940843 C18.8837176,28.2806881 17.6032025,27.3489343 16.1039729,27.3489343 C14.6040043,27.3489343 13.3234893,28.2806881 12.7962836,29.5940843 L12.0983918,29.5940843 C11.2091247,29.5940843 10.4713323,29.2726624 10.019125,28.6863447 C9.56802609,28.1018742 9.44352131,27.3068169 9.66814715,26.446367 L11.4839958,19.4970052 C11.988665,17.5629324 14.1045074,15.9284839 16.1039729,15.9284839 L20.9016556,15.9284839 C22.9905281,15.9284839 25.6513097,17.4502501 26.7134796,19.2494735 L29.0506227,23.2133066 L32.1030218,23.2133066 C32.8391668,23.2145264 33.4356835,23.8108779 33.4371072,24.5470225 L33.4371072,28.2599989 L33.4374766,28.2599989 Z M25.4699096,20.3190323 C24.5078608,18.6376636 22.0909164,17.2156491 20.1915719,17.2156491 L17.1018584,17.2156491 C15.287857,17.2156491 13.3685622,18.7392625 12.908227,20.5506777 L12.3034368,23.1434805 C12.2746196,23.2683548 12.3034368,23.3980318 12.3824991,23.4963056 C12.4615615,23.5964267 12.580894,23.6544304 12.7079849,23.6544304 L26.7223464,23.6544304 C26.825112,23.8274551 27.0369957,23.9021099 27.2255257,23.8317199 C27.4140557,23.7613299 27.5251675,23.5660808 27.4893929,23.3680442 C27.4536182,23.1700077 27.2812163,23.0259743 27.0799744,23.0259953 L25.4699096,20.3190323 L25.4699096,20.3190323 Z M13.7158456,20.7472253 C14.0808626,19.3078466 15.6632186,18.0458041 17.1018584,18.0458041 L17.5370709,18.0458041 L16.4523646,22.8220587 L13.2314961,22.8220587 L13.7158456,20.7472253 L13.7158456,20.7472253 Z M17.3039477,22.8220587 L18.389393,18.0458041 L20.1915719,18.0458041 C21.7720807,18.0458041 23.9451879,19.327058 24.7528064,20.7383585 L25.9930514,22.8220587 L17.3039477,22.8220587 Z M24.0342254,11.9288141 L24.7387673,6.40146684 C24.7698077,6.1746239 24.9769281,6.01451652 25.2042748,6.04162216 C25.4314868,6.06970039 25.5929366,6.27880931 25.5641195,6.50491294 L24.8595776,12.0341074 C24.8317027,12.2408414 24.6555056,12.3952702 24.4469015,12.3957993 C24.4295373,12.3957993 24.4110648,12.3957993 24.3940701,12.3939521 C24.1665245,12.3644098 24.0056679,12.1564853 24.0342254,11.9288141 Z M27.1383475,13.0977551 L30.2110664,8.02667908 C30.3334835,7.8390198 30.5826172,7.78216965 30.774322,7.89814905 C30.9660267,8.01412845 31.0312971,8.26118981 30.9218889,8.45671933 L27.8491701,13.5296426 C27.7296592,13.7253788 27.4746329,13.7880631 27.2779998,13.6700337 C27.0822111,13.5499786 27.0198672,13.2945008 27.1383475,13.0977551 L27.1383475,13.0977551 Z M29.5013522,15.428987 L34.0308139,12.2746196 C34.1210181,12.2114881 34.2326634,12.1869099 34.3410398,12.2063248 C34.4494161,12.2257396 34.5455861,12.2875464 34.6082649,12.3780657 C34.6713964,12.4682699 34.6959746,12.5799151 34.6765597,12.6882915 C34.6571449,12.7966679 34.5953381,12.8928379 34.5048188,12.9555167 L29.9749876,16.1098841 C29.9033142,16.159021 29.8205573,16.1837742 29.7378005,16.1837742 C29.6062761,16.1837742 29.4780768,16.1220759 29.3975367,16.006438 C29.3342444,15.9162523 29.3096071,15.8045174 29.3291027,15.6960772 C29.3485984,15.5876369 29.410611,15.4914802 29.5013522,15.428987 L29.5013522,15.428987 Z" id="Shape" fill="#FFFFFF" fill-rule="nonzero"></path>
                </g>
            </g>
        </g>
    </g>
</svg>